<?xml version="1.0" standalone="no"?><!DOCTYPE svg PUBLIC "-//W3C//DTD SVG 1.1//EN" "http://www.w3.org/Graphics/SVG/1.1/DTD/svg11.dtd"><svg t="1494394603380" class="icon" style="" viewBox="0 0 1024 1024" version="1.1" xmlns="http://www.w3.org/2000/svg" p-id="8740" xmlns:xlink="http://www.w3.org/1999/xlink" width="200" height="200"><defs><style type="text/css"></style></defs><path d="M829.741 513.215l-318.108 272.66-318.107-272.66c-4.61-3.953-10.263-5.886-15.887-5.886-6.888 0.006-13.729 2.896-18.562 8.531-8.777 10.246-7.594 25.666 2.651 34.442l349.903 299.925 349.904-299.919c10.245-8.783 11.428-24.202 2.652-34.449-8.783-10.24-24.203-11.428-34.449-2.645v0zM829.741 513.215z" p-id="8741" fill="#ffffff"></path><path d="M161.728 216.305l349.904 299.919 349.904-299.919c10.245-8.784 11.428-24.205 2.652-34.451-8.783-10.238-24.204-11.427-34.45-2.644l-318.108 272.661-318.105-272.661c-4.61-3.953-10.263-5.886-15.887-5.886-6.889 0-13.728 2.897-18.562 8.53-8.777 10.245-7.594 25.667 2.651 34.451v0zM161.728 216.305z" p-id="8742" fill="#ffffff"></path></svg>