<?xml version="1.0" standalone="no"?><!DOCTYPE svg PUBLIC "-//W3C//DTD SVG 1.1//EN" "http://www.w3.org/Graphics/SVG/1.1/DTD/svg11.dtd"><svg t="1494380775188" class="icon" style="" viewBox="0 0 1024 1024" version="1.1" xmlns="http://www.w3.org/2000/svg" p-id="4642" xmlns:xlink="http://www.w3.org/1999/xlink" width="200" height="200"><defs><style type="text/css"></style></defs><path d="M55.671 376.597 497.166 591.07c5.824 2.83 12.327 4.326 18.804 4.326 6.477 0 12.979-1.496 18.804-4.325l441.493-214.474c14.719-7.15 24.229-22.344 24.229-38.708 0-16.364-9.511-31.557-24.229-38.708L534.772 84.707c-5.825-2.83-12.327-4.325-18.804-4.325-6.476 0-12.978 1.496-18.803 4.325L55.671 299.182c-14.719 7.15-24.229 22.344-24.229 38.708C31.441 354.253 40.952 369.447 55.671 376.597zM172.958 337.889 515.97 171.257l343.01 166.632L515.97 504.521 172.958 337.889z" p-id="4643" fill="#00b0f0"></path><path d="M957.439 484.031c-6.542 0-12.861 1.458-18.78 4.334L515.97 693.704 93.279 488.365c-5.92-2.876-12.239-4.335-18.781-4.335-16.375 0-31.578 9.514-38.731 24.238-10.368 21.343-1.439 47.143 19.904 57.512l441.497 214.476c5.829 2.829 12.33 4.324 18.802 4.324 6.472 0 12.974-1.495 18.804-4.325L976.267 565.78c21.343-10.368 30.271-36.168 19.904-57.512C989.019 493.544 973.815 484.031 957.439 484.031z" p-id="4644" fill="#00b0f0"></path><path d="M957.438 658.079c-6.541 0-12.859 1.458-18.778 4.333L515.97 867.752 93.278 662.412c-5.92-2.875-12.238-4.333-18.779-4.333-16.376 0-31.58 9.514-38.732 24.238-10.368 21.343-1.439 47.142 19.904 57.511l441.495 214.475c5.827 2.83 12.329 4.325 18.804 4.325s12.977-1.495 18.804-4.325l441.493-214.475c21.343-10.368 30.271-36.168 19.904-57.512C989.018 667.593 973.814 658.079 957.438 658.079z" p-id="4645" fill="#00b0f0"></path></svg>