<svg xmlns="http://www.w3.org/2000/svg" viewBox="0 0 155.04 49.83"><defs><style>.cls-1{fill:#fff;fill-rule:evenodd;}</style></defs><title>资源 1</title><g id="图层_2" data-name="图层 2"><g id="图层_1-2" data-name="图层 1"><path class="cls-1" d="M24.92,0l8.81,3.65L42.53,7.3l2,4.9c-4.43,0-12.57.23-14.77.5-10.62,1.28-13,8.76-22.44,9.25-2.3.12-3.7.2-6.19.13l2.47-6L7.3,7.3l8.81-3.65L24.92,0ZM45.5,14.45a43.83,43.83,0,0,0-8.6.51c-9,2-11,8-23.34,9.55-3.25.41-8.58.29-13.54.37v0l1.47,3.56a65,65,0,0,0,8.61,0c9.44-.5,11.82-8,22.43-9.25,2.2-.27,10.3-.49,14.74-.5l-1.07-2.6-.69-1.65ZM48.19,21a43.84,43.84,0,0,0-8.58.52c-9,2-11,8-23.34,9.55-3.26.41-8.62.29-13.59.37l1,2.34L4.17,35a65,65,0,0,0,8.63,0c9.44-.49,11.82-8,22.43-9.25,2.16-.26,10-.48,14.48-.5l.12-.29-1.64-4Zm.59,6.5-2.6,6.27-3.65,8.81-8.81,3.65-8.81,3.65-8.81-3.65L7.3,42.54,5.38,37.89c5-.08,10.35,0,13.62-.37C31.34,36,33.38,30,42.33,28A34.19,34.19,0,0,1,48.78,27.46Z"/><path class="cls-1" d="M58.69,10.23H79.48V8.43H58.69v1.8ZM57.86,18h4.31L58.33,30H77.8a1.79,1.79,0,0,0,1.4-.66,1.72,1.72,0,0,0,.36-1.47L78,21.43H72.16l1.49,6.25a.33.33,0,0,1-.09.36.44.44,0,0,1-.33.19H64.77L68,18H80.31V16.2H57.86V18Zm37.32,5.73.52,3.84h3.55l-.52-3.84Zm0-7.46.52,3.86h3.55l-.52-3.86ZM82.8,7.89l1.07,4.9h4.59l-1.07-4.9Zm0,5.87,1.11,4.9H88.5l-1.11-4.9Zm17.31,13.93a.69.69,0,0,1-.73.66h-5V22.78h5.78v4.9ZM94.33,15.39h5.78V21H94.33V15.39Zm-3.5-7.63-1.54,5.4h4.81l.52-1.94h10.44V9.43H95.11l.47-1.66Zm-6.92,12L82.8,30.27h4.59L88.5,19.77Zm5.38,3V21h.59V13.59h14.68V21h.5v1.8h-.5v5.57a1.89,1.89,0,0,1-2,1.8H89.88V22.78Zm25.46-.36v1.35l-1.3.92-1.23-.92V22.43ZM107.36,8.17l.33,3.36h3.1l-.36-3.36Zm8.86,0-.33,3.36H119l.33-3.36ZM110.43,19.4l.36-5h-3.1l-.33,5Zm8.88,0-.33-5h-3.1l.33,5Zm-12-5.57V12h3.81V7.74h4.31V12h3.84v1.8h-3.84V19.4h-4.31V13.83Zm0,8.6h.71v2.94L110.22,27,108,28.49h-.66v1.8h4.48l1.52-1.07,1.44,1.07h4.48v-1.8h-.66L116.54,27l2.32-1.63V22.43h.83V20.65h-7.48v-.76h-4.14v.76h-.71v1.78ZM120.78,7.74h4.12l-.38,3h5.26v1.56h-.38v6.56L126.94,24l2.87,6.35h-4.52l-.66-1.47-.69,1.47h-4.55l3-6.35-2.32-5.16V16.08h4.22V18l.47,1.07.5-1.07V12.5h-1l-.38,2.94h-4.1l1-7.7Zm29.93,20a.7.7,0,0,1-.71.66h-1V24h1.73v3.81ZM144.66,13.1V9.9H150v2.56a.66.66,0,0,1-.71.64Zm2.89,2.49v2.2h-2.42v1.78h2.42v2.63h-2.18v8h7.34a1.6,1.6,0,0,0,1.63-1.54V22.19H152V19.56h2.56V17.79H152v-2.2Zm-14-7.84v4.4h-1.35V14h1.35v7.74l-1.35.31v1.82l1.35-.33v4.26a.72.72,0,0,1-.76.66h-.47v1.82h3.27A2.45,2.45,0,0,0,138.14,28V22.4l1.4-.36v-1.8l-1.4.36V14h1.4V12.15h-1.4V7.74Zm6.56,22.52h4.57V14.9h7.55a2.31,2.31,0,0,0,2.34-2.23V8.12H140.09Z"/><path class="cls-1" d="M65.63,33.92,63,39.17v2.92H61.21V39.2l-2.6-5.29h2L62,37c0,.06.09.28.19.64h0a2.87,2.87,0,0,1,.17-.63l1.41-3.14Zm9.64,4.66q0,3.66-3.4,3.66t-3.28-3.56V33.92h1.75v4.76q0,2,1.61,2t1.58-2V33.92h1.74v4.66Zm11.17,3.51H84.66L81.19,36.8a6,6,0,0,1-.39-.66h0a12.71,12.71,0,0,1,0,1.3v4.65H79.17V33.92h1.9l3.34,5.14c.22.34.36.56.41.65h0a7.68,7.68,0,0,1-.05-1.13V33.92h1.65v8.18Zm11,0H95.67V38.72H92.19v3.37H90.45V33.92h1.74v3.3h3.48v-3.3h1.74v8.18Zm11.11,0h-1.9L106,40.22h-3l-.6,1.87h-1.89l3-8.18h2l2.93,8.18Zm-2.92-3.22L104.68,36a3.22,3.22,0,0,1-.13-.71h0a3,3,0,0,1-.14.69l-.93,2.86Zm7.8-5v8.18h-1.74V33.92ZM120,42.09V33.92h2.82q4.35,0,4.35,4a4,4,0,0,1-1.22,3,4.4,4.4,0,0,1-3.15,1.15Zm1.74-6.75v5.33h1a2.57,2.57,0,0,0,1.95-.74,2.78,2.78,0,0,0,.71-2,2.47,2.47,0,0,0-.74-1.9,2.71,2.71,0,0,0-1.92-.68Zm15.84,6.75h-1.9l-.61-1.87h-3l-.6,1.87h-1.89l3-8.18h2l2.93,8.18Zm-2.92-3.22L133.71,36a3.22,3.22,0,0,1-.13-.71h0a3,3,0,0,1-.14.69l-.93,2.86Zm10.89-3.53H143.2v6.75h-1.75V35.34h-2.33V33.92h6.41v1.43Zm9.5,6.75h-1.9l-.61-1.87h-3l-.6,1.87h-1.89l3-8.18h2L155,42.09Zm-2.92-3.22L151.19,36a3.22,3.22,0,0,1-.13-.71h0a3,3,0,0,1-.14.69l-.93,2.86Z"/></g></g></svg>