<?xml version="1.0" encoding="utf-8"?>
<!-- Generator: Adobe Illustrator 21.0.2, SVG Export Plug-In . SVG Version: 6.00 Build 0)  -->
<svg version="1.1" id="图层_1" xmlns="http://www.w3.org/2000/svg" xmlns:xlink="http://www.w3.org/1999/xlink" x="0px" y="0px"
	 viewBox="0 0 200 200" style="enable-background:new 0 0 200 200;" xml:space="preserve">
<style type="text/css">
	.st0{fill:#00B0F0;}
</style>
<path class="st0" d="M146.8,36.3c1.9,0,3.6,0,5.3,0c7.1,0,12.1,5,12.1,12.2c0,10.2,0,20.4,0,30.6c0,1.1,0.4,1.6,1.3,2.1
	c4.4,2.3,8.6,4.9,13.1,7c7.7,3.7,11.2,14.1,7.3,22.5c-1.9,4-3.6,8-5.3,12.1c-5.4,13.4-10.7,26.8-16.1,40.2c-0.1,0.4-0.3,0.7-0.4,1.2
	c2.2,0.2,4.4,0.3,6.6,0.6c5.6,0.8,10.9,2.3,15.6,5.5c1.2,0.8,2.5,1.4,3.7,2c3,1.6,4.2,5,2.7,7.9c-1.4,2.8-4.8,4-7.8,2.5
	c-1.6-0.8-3.1-1.6-4.6-2.5c-5.7-3.5-12-4.6-18.6-4.2c-6.5,0.4-12.3,2.7-17.7,6.4c-3.3,2.2-7.2,3.3-11.1,4
	c-12.1,2.4-23.5,0.3-33.9-6.2c-3.3-2.1-6.9-3.2-10.7-3.8c-9.2-1.5-17.7,0.7-25.4,5.9c-3.4,2.3-7.4,3.4-11.5,4.2
	c-12.6,2.5-24.3,0-35.1-6.9c-1.5-1-3.4-1.5-5.1-2.1c-2.7-1-4.2-3.5-3.8-6.4c0.4-2.6,2.6-4.7,5.4-4.8c0.7,0,1.4,0,2,0.2
	c3,0.9,6,2.1,8.6,3.8c5.1,3.4,10.7,5.2,16.9,5.5c0.2,0,0.4,0,0.8,0c-0.2-0.5-0.3-0.9-0.4-1.3c-8-20.1-16.1-40.3-24.1-60.4
	c-0.2-0.6-0.6-1.2-0.9-1.7c-4-6.6-3.3-15,1.9-20.7c1.1-1.2,2.4-2.1,3.8-2.9c4.6-2.6,9.4-5.1,14.1-7.6c0.7-0.4,1-0.8,1-1.7
	c0-10.4,0-20.8,0-31.2c0-5.6,3.6-10.2,8.9-11.5c1-0.3,2.1-0.3,3.2-0.4c1.7-0.1,3.4,0,5.3,0c0-0.5,0.1-0.9,0.1-1.3c0-3.3,0-6.5,0-9.8
	c0-7.2,4.9-12.1,12.1-12.1c22.9,0,45.9,0,68.8,0c7,0,12,4.9,12,11.9C146.8,28.8,146.8,32.4,146.8,36.3z M53,174.1
	c1.3-0.6,2.5-1,3.5-1.6c10.5-7,22-9.6,34.5-7.4c4.4,0.8,8.8,2,12.6,4.5c7.6,5.1,15.9,7.1,25,5.8c3.3-0.5,6.5-1.2,9.3-3
	c3.7-2.3,7.5-4.4,11.6-5.7c0.8-0.3,1.2-0.7,1.5-1.5c7.5-18.9,15.1-37.8,22.7-56.6c0.3-0.7,0.6-1.4,1.1-2c2-2.7,0.9-6.8-1.9-8.3
	c-21.8-11.6-43.5-23.5-65.2-35.2c-0.5-0.3-1-0.5-1.6-0.8c0,1.2,0,2.1,0,3.1c0,24.7,0.1,49.4,0.1,74.1c0,6.1,0,12.1,0,18.2
	c0,4.1-3.8,6.9-7.6,5.6c-2.5-0.8-4-3-4-6.1c0-31.2-0.1-62.3-0.1-93.5c0-0.4,0-0.8,0-1.4c-0.4,0.2-0.7,0.3-0.9,0.5
	c-22.2,12-44.4,24-66.6,36c-0.6,0.3-1.1,0.8-1.4,1.4c-1.2,2.1-1.1,4.3,0.2,6.4c0.4,0.6,0.7,1.2,1,1.8c6.9,17.3,13.8,34.6,20.7,51.8
	C49.2,164.7,51.1,169.3,53,174.1z M48,74.1c0.6-0.3,0.9-0.4,1.2-0.6c12-6.5,24.1-13,36.1-19.5c1.7-0.9,3.4-1.8,5-2.9
	c6.1-4.3,13.8-4.3,19.9,0c0.4,0.3,0.9,0.6,1.3,0.8c13.3,7.2,26.5,14.4,39.8,21.5c0.3,0.2,0.7,0.3,1.1,0.5c0-8.8,0-17.4,0-26.2
	c-2.1,0-4.2,0.1-6.2,0c-5.5-0.2-10.1-4.3-10.9-9.8c-0.2-1.1-0.2-2.2-0.2-3.2c0-3.4,0-6.7,0-10.1c-23.3,0-46.4,0-69.7,0
	c0,0.5,0,0.9,0,1.4c0,3.4,0,6.7,0,10.1c-0.1,6.5-5,11.5-11.5,11.7c-1.6,0-3.1,0.1-4.7,0c-1,0-1.3,0.2-1.3,1.3c0,6.5,0,13.1,0,19.6
	C48,70.5,48,72.2,48,74.1z"/>
</svg>
