<?xml version="1.0" standalone="no"?><!DOCTYPE svg PUBLIC "-//W3C//DTD SVG 1.1//EN" "http://www.w3.org/Graphics/SVG/1.1/DTD/svg11.dtd"><svg t="1494380702116" class="icon" style="" viewBox="0 0 1024 1024" version="1.1" xmlns="http://www.w3.org/2000/svg" p-id="2684" xmlns:xlink="http://www.w3.org/1999/xlink" width="200" height="200"><defs><style type="text/css"></style></defs><path d="M509.952 159.353905c-121.124571 0-223.101968 101.993651-223.101968 223.101968 0 121.108317 101.977397 223.101968 223.101968 223.101968 121.092063 0 223.101968-101.993651 223.101968-223.101968 0-121.108317-101.993651-223.101968-223.101968-223.101968z m0 382.455873c-89.234286 0-159.370159-70.103365-159.370159-159.353905 0-89.234286 70.119619-159.353905 159.370159-159.353905 89.234286 0 159.353905 70.119619 159.353905 159.353905s-70.119619 159.353905-159.353905 159.353905z m350.581841 12.759365c25.502476-51.004952 38.245587-108.365206 38.245588-172.11327C898.779429 172.129524 726.666159 0 509.952 0 293.221587 0 121.092063 172.11327 121.092063 388.827429c0 63.748063 12.759365 121.124571 38.245588 172.113269L0 828.65981l203.987302 38.245587a4902.001778 4902.001778 0 0 1 133.851428 152.982349l146.610794-248.58819h50.988698l146.610794 248.58819s70.119619-76.491175 133.867682-152.982349l203.987302-38.245587-159.370159-274.090667z m-529.066666 363.341206s-51.004952-57.376508-95.622096-101.993651c-63.73181-19.130921-146.610794-38.245587-146.610793-38.245587l101.993651-165.741714c50.988698 70.119619 146.610794 127.496127 235.845079 152.982349l-95.605841 152.998603z m178.468571-210.358857c-178.468571 0-325.079365-140.239238-325.079365-318.724063 0-178.468571 152.982349-337.83873 325.079365-337.838731 178.484825 0 325.095619 152.982349 325.095619 325.095619 0 184.856381-146.610794 331.467175-325.079365 331.467175z m280.478476 108.365206c-44.617143 44.617143-101.993651 108.365206-101.993651 108.365207l-95.605841-159.370159c89.234286-19.114667 172.097016-82.86273 229.473524-152.982349l108.365206 172.11327s-76.491175 12.743111-140.239238 31.857777z" p-id="2685" fill="#00b0f0"></path></svg>