<?xml version="1.0" encoding="utf-8"?>
<!-- Generator: Adobe Illustrator 21.0.2, SVG Export Plug-In . SVG Version: 6.00 Build 0)  -->
<svg version="1.1" id="图层_1" xmlns="http://www.w3.org/2000/svg" xmlns:xlink="http://www.w3.org/1999/xlink" x="0px" y="0px"
	 viewBox="0 0 200 200" style="enable-background:new 0 0 200 200;" xml:space="preserve">
<style type="text/css">
	.st0{fill:#FFFFFF;}
</style>
<g>
	<path class="st0" d="M33.4,110.6c-0.1-0.3,0-0.5,0.3-0.5c0.4,0,0.9-0.1,1.2-0.1c0.4,0,0.7-0.1,0.9-0.1c0.5-0.1,0.8-0.3,1-0.6
		c0.1-0.3,0.2-0.8,0.2-1.4V91H18.8v20.1c0,0.2-0.1,0.4-0.2,0.5s-0.2,0.1-0.4,0.1h-0.6c-0.1,0-0.3,0-0.4-0.1
		c-0.1-0.1-0.2-0.2-0.2-0.5V89.9c0-0.2,0.1-0.4,0.2-0.5c0.1-0.1,0.2-0.1,0.4-0.1h0.6c0.1,0,0.3,0,0.4,0.1c0.1,0.1,0.2,0.3,0.2,0.5
		V90h5.3c0.2-0.7,0.4-1.3,0.6-1.8c0.1-0.6,0.3-1.2,0.5-1.9c0.1-0.4,0.3-0.5,0.7-0.4c0.2,0,0.4,0.1,0.6,0.1c0.2,0.1,0.3,0.1,0.3,0.1
		c0.2,0.1,0.2,0.1,0.3,0.3s0,0.3,0,0.4c-0.2,0.5-0.5,1.1-0.8,1.7c-0.4,0.6-0.7,1.1-1,1.6H37v-0.2c0-0.2,0-0.4,0.1-0.5
		c0.1-0.1,0.2-0.1,0.4-0.1h0.6c0.2,0,0.3,0,0.4,0.1c0.1,0.1,0.2,0.3,0.2,0.5v18.6c0,0.7-0.1,1.3-0.4,1.8c-0.3,0.5-0.8,0.9-1.5,1.1
		c-0.3,0.1-0.7,0.1-1,0.2c-0.4,0-0.8,0.1-1.2,0.1c-0.2,0-0.4,0-0.5-0.1c-0.1,0-0.2-0.1-0.3-0.3L33.4,110.6z M31.2,95.4
		c0-0.2,0-0.4,0.1-0.5c0.1-0.1,0.2-0.1,0.4-0.1h0.6c0.1,0,0.3,0,0.4,0.1c0.1,0.1,0.2,0.2,0.2,0.5v9.9c0,0.2,0,0.4-0.1,0.5
		c-0.1,0.1-0.2,0.1-0.4,0.1h-0.6c-0.1,0-0.3,0-0.4-0.1c-0.1-0.1-0.2-0.2-0.2-0.5v-0.5h-6.8v0.8c0,0.2,0,0.4-0.1,0.5
		c-0.1,0.1-0.2,0.1-0.4,0.1h-0.6c-0.1,0-0.3,0-0.4-0.1c-0.1-0.1-0.2-0.2-0.2-0.5V95.5c0-0.2,0-0.4,0.1-0.5c0.1-0.1,0.2-0.1,0.4-0.1
		h0.6c0.1,0,0.3,0,0.4,0.1c0.1,0.1,0.2,0.2,0.2,0.5v0.3h6.8V95.4z M24.4,103.9h6.8v-7.2h-6.8V103.9z"/>
	<path class="st0" d="M44.1,88.4c0-0.2,0.1-0.3,0.3-0.3h25c0.3,0,0.4,0.1,0.4,0.3v0.3c0,0.2-0.1,0.3-0.3,0.3H56.9v6
		c0.5,0.2,1,0.5,1.6,0.8c0.6,0.3,1.2,0.7,1.9,1.1c0.7,0.4,1.3,0.8,2,1.2c0.7,0.4,1.3,0.8,1.8,1.1c0.6,0.4,1.1,0.7,1.5,1
		c0.4,0.3,0.7,0.6,0.9,0.8c0.2,0.3,0.3,0.6,0.2,1c-0.1,0.3-0.1,0.6-0.2,0.8c-0.1,0.2-0.3,0.3-0.5,0.2c-0.2,0-0.4-0.1-0.5-0.2
		c-0.6-0.6-1.3-1.2-2-1.8c-0.7-0.6-1.5-1.2-2.3-1.8c-0.8-0.6-1.5-1.2-2.3-1.7c-0.8-0.6-1.5-1.1-2.1-1.5v15c0,0.2,0,0.4-0.1,0.5
		s-0.2,0.1-0.4,0.1h-0.7c-0.1,0-0.3,0-0.4-0.1c-0.1-0.1-0.2-0.2-0.2-0.5V89.1H44.4c-0.2,0-0.3-0.1-0.3-0.3V88.4z"/>
	<path class="st0" d="M72.8,93.7c-0.1-0.1-0.1-0.2,0.1-0.3c0.1-0.2,0.2-0.2,0.4-0.1c0.4,0.2,0.8,0.4,1.2,0.7
		c0.4,0.2,0.8,0.5,1.1,0.7c0.3,0.2,0.7,0.5,0.9,0.7c0.3,0.2,0.5,0.4,0.6,0.6c0.2,0.2,0.2,0.5,0.1,0.8c0,0.1-0.1,0.2-0.1,0.3
		c0,0.1-0.1,0.3-0.2,0.4c-0.1,0.1-0.2,0.2-0.4,0.2c-0.2,0-0.3,0-0.4-0.2c-0.3-0.4-0.6-0.8-0.8-1.1c-0.2-0.3-0.5-0.6-0.7-0.9
		c-0.2-0.3-0.5-0.6-0.8-0.9C73.5,94.3,73.2,94,72.8,93.7z M73.7,104.3c-0.1-0.1,0-0.3,0.1-0.3c0.2-0.1,0.3-0.1,0.4,0l1.2,1.5
		l3.7-9.1c0-0.1,0.1-0.1,0.2-0.1c0.1,0,0.2,0,0.3,0c0.1,0,0.2,0.1,0.2,0.1c0.1,0.1,0.1,0.1,0.1,0.2l-3.3,10.5c0.2,0.3,0.4,0.7,0.6,1
		c0.2,0.3,0.3,0.6,0.4,0.8c0.1,0.3,0.2,0.5,0.2,0.7c0,0.2,0,0.4-0.1,0.6c-0.1,0.1-0.1,0.3-0.2,0.4c-0.1,0.1-0.2,0.3-0.4,0.4
		c-0.2,0.1-0.4,0.2-0.6,0.1c-0.2,0-0.3-0.2-0.4-0.4c-0.3-0.9-0.6-1.9-1-3C74.7,106.8,74.2,105.6,73.7,104.3z M75.3,86.7
		c-0.1-0.1-0.1-0.2,0.1-0.3c0.1-0.1,0.2-0.2,0.4-0.1c0.4,0.2,0.8,0.4,1.2,0.7s0.8,0.5,1.1,0.7c0.3,0.2,0.6,0.5,0.9,0.7
		c0.3,0.2,0.5,0.5,0.6,0.7c0.1,0.3,0.2,0.5,0.1,0.8c0,0.1-0.1,0.2-0.1,0.4c-0.1,0.1-0.1,0.3-0.2,0.4c-0.1,0.1-0.2,0.2-0.4,0.2
		c-0.2,0-0.3-0.1-0.4-0.2c-0.3-0.4-0.5-0.8-0.8-1.1c-0.2-0.3-0.5-0.6-0.7-0.9c-0.2-0.3-0.5-0.6-0.8-0.9C75.9,87.3,75.6,87,75.3,86.7
		z M78.5,107.1c0.8-0.4,1.7-0.9,2.6-1.5c0.9-0.5,1.7-1.1,2.5-1.7c0.8-0.6,1.6-1.2,2.3-1.9c0.7-0.6,1.3-1.3,1.9-1.9l-5.5,0.7
		c-0.4,0-0.6-0.1-0.7-0.4c0-0.1,0-0.2,0-0.3c0-0.1,0-0.2,0-0.3c0-0.1,0-0.2,0.1-0.4c0.1-0.1,0.2-0.2,0.4-0.2l0.7,0
		c0.5-0.5,1.1-0.9,1.6-1.4c0.5-0.5,1-1,1.5-1.5c0.5-0.5,0.9-1,1.2-1.4c0.4-0.5,0.7-0.9,1-1.3c0.2-0.3,0.4-0.3,0.8-0.2l0.7,0.4
		c0.1,0.1,0.2,0.2,0.2,0.3c0,0.1,0,0.2-0.1,0.3c-0.2,0.3-0.5,0.6-0.9,1c-0.4,0.4-0.8,0.8-1.4,1.3c-0.5,0.4-1,0.9-1.6,1.3
		c-0.6,0.4-1.1,0.8-1.6,1.1l9-0.5c-0.6-0.7-1.5-1.5-2.5-2.4c0,0,0-0.1,0-0.1c0-0.1,0.1-0.2,0.1-0.2c0.1-0.1,0.1-0.1,0.2-0.2
		s0.1,0,0.2,0c0.7,0.4,1.3,0.8,1.9,1.2c0.5,0.4,1,0.7,1.4,1c0.4,0.3,0.7,0.6,0.9,0.8c0.2,0.2,0.4,0.5,0.6,0.7
		c0.1,0.1,0.2,0.2,0.2,0.4c0,0.1,0,0.3,0,0.5c0,0.1,0,0.3-0.1,0.4c0,0.1-0.1,0.2-0.1,0.2c-0.1,0.2-0.3,0.3-0.5,0.3
		c-0.2,0-0.4-0.1-0.5-0.3l-1.1-1.5L90,99.9c-0.2,0.3-0.4,0.6-0.8,0.9c0.6,0.9,1.2,1.7,1.7,2.4c0.6,0.7,1.2,1.4,1.8,2
		c0.4-0.3,0.7-0.6,1-0.9c0.3-0.3,0.5-0.5,0.8-0.8c0.2-0.2,0.4-0.5,0.6-0.8c0.2-0.3,0.4-0.5,0.6-0.9c0.1-0.2,0.3-0.2,0.4-0.2
		c0.2,0,0.3,0,0.4,0.1c0.1,0.1,0.2,0.2,0.3,0.3c0.1,0.1,0.2,0.2,0.2,0.2c0.3,0.3,0.2,0.5-0.1,0.8c-0.4,0.4-1,0.8-1.7,1.3
		c-0.7,0.5-1.3,0.9-2,1.2c0.7,0.6,1.6,1.2,2.5,1.8c0.9,0.5,2,1,3.2,1.5c0.2,0.1,0.2,0.1,0.2,0.3c0,0.1-0.1,0.2-0.2,0.3
		c-0.1,0.1-0.3,0.2-0.4,0.3c-0.1,0.1-0.3,0.3-0.6,0.4c-0.2,0.2-0.5,0.1-0.9,0c-0.9-0.4-1.8-0.9-2.6-1.5c-0.8-0.6-1.6-1.3-2.4-2.1
		c-0.7-0.8-1.4-1.6-2-2.6c-0.6-0.9-1.1-1.9-1.6-2.9c-0.4,0.4-0.9,0.9-1.4,1.4c-0.5,0.5-1.1,0.9-1.7,1.4v5.2l5.1-1.8
		c0.1,0,0.1,0,0.2,0.1c0.1,0.1,0.1,0.1,0.2,0.2c0,0.1,0.1,0.2,0.1,0.3c0,0.1,0,0.2-0.1,0.2c-1,0.6-2,1.1-3,1.6
		c-1.1,0.5-2.3,1.1-3.8,1.8c-0.4,0.2-0.7,0.1-0.9-0.2c0-0.1-0.1-0.2-0.1-0.4c-0.1-0.1-0.1-0.3-0.1-0.4c0-0.1,0-0.2,0-0.3
		c0-0.1,0.1-0.2,0.3-0.3l0.8-0.3v-4.6c-0.8,0.5-1.6,1-2.5,1.5c-0.9,0.5-1.8,0.9-2.7,1.3c-0.1,0-0.2,0-0.2,0
		c-0.1-0.1-0.1-0.2-0.2-0.2c0-0.1-0.1-0.2-0.1-0.3C78.4,107.2,78.5,107.2,78.5,107.1z M79.8,95.5c1-0.6,2-1.3,3.1-2.1
		c1-0.8,1.9-1.6,2.6-2.5c0.2-0.3,0.5-0.3,0.8-0.1l0.6,0.5c0.1,0.1,0.2,0.2,0.2,0.3c0,0.1,0,0.3-0.1,0.3c-0.3,0.3-0.6,0.6-1.1,1
		c-0.5,0.4-1,0.7-1.6,1.1c-0.6,0.4-1.3,0.7-2,1.1c-0.7,0.4-1.4,0.7-2.1,0.9c-0.1,0-0.1,0-0.2,0c-0.1,0-0.1-0.1-0.1-0.2
		c0-0.1-0.1-0.2-0.1-0.2C79.8,95.6,79.8,95.5,79.8,95.5z M87.4,86.2c-0.1-0.1,0-0.2,0.1-0.3c0.1-0.1,0.2-0.2,0.4-0.1
		c0.6,0.3,1,0.6,1.5,0.9c0.4,0.3,0.7,0.6,0.9,0.8c0.2,0.2,0.2,0.4,0.3,0.5c0,0.2,0,0.3-0.1,0.5l-0.2,0.3h8.2c0.3,0,0.4,0.1,0.4,0.3
		v0.3c0,0.2-0.1,0.3-0.4,0.3H80.8c-0.2,0-0.3-0.1-0.3-0.3v-0.3c0-0.2,0.1-0.3,0.3-0.3h8.4c-0.3-0.5-0.5-1-0.8-1.4
		C88.1,87,87.8,86.6,87.4,86.2z M91.1,91.4c-0.1-0.1-0.1-0.2,0-0.4c0.1-0.2,0.2-0.3,0.4-0.2c3.1,1.4,4.9,2.5,5.6,3.3
		c0.1,0.1,0.2,0.3,0.3,0.4s0,0.3,0,0.5c0,0.1,0,0.3,0,0.4c0,0.1-0.1,0.2-0.1,0.3c-0.1,0.2-0.2,0.3-0.4,0.3c-0.2,0-0.4,0-0.5-0.2
		c-0.7-0.7-1.5-1.5-2.3-2.2C93.2,92.9,92.2,92.2,91.1,91.4z"/>
	<path class="st0" d="M102.2,106.5c0-0.1,0-0.3,0.1-0.4c0.1-0.1,0.2-0.2,0.4-0.2l0.5-0.1c0.5-0.8,0.9-1.5,1.3-2.4
		c0.4-0.8,0.8-1.6,1.1-2.5c0.3-0.8,0.6-1.6,0.9-2.4c0.3-0.8,0.5-1.5,0.6-2.2h-4.6c-0.2,0-0.3-0.1-0.3-0.3v-0.4
		c0-0.2,0.1-0.3,0.3-0.3h12.7c0.3,0,0.4,0.1,0.4,0.3v0.4c0,0.2-0.1,0.3-0.3,0.3h-6.4c-0.2,0.7-0.5,1.4-0.8,2.2
		c-0.3,0.8-0.7,1.6-1,2.4c-0.4,0.8-0.8,1.6-1.2,2.4c-0.4,0.8-0.9,1.5-1.3,2.2l7.8-1c-0.3-0.7-0.7-1.4-1-2.2
		c-0.4-0.8-0.9-1.6-1.4-2.4c-0.1-0.1,0-0.3,0.2-0.4c0.2-0.1,0.3-0.1,0.4,0c1.2,1.3,2.1,2.4,2.8,3.4c0.6,1,1,1.7,1.1,2.1
		c0,0.2,0.1,0.3,0.1,0.4c0,0.1,0,0.3-0.1,0.5c0,0.1-0.1,0.2-0.1,0.3c0,0.1-0.1,0.2-0.1,0.2c-0.2,0.2-0.3,0.3-0.5,0.2
		s-0.3-0.2-0.4-0.4c-0.1-0.2-0.2-0.3-0.2-0.5c-0.1-0.2-0.1-0.4-0.2-0.6c-0.9,0.2-1.7,0.4-2.6,0.6c-0.9,0.2-1.7,0.4-2.6,0.5
		c-0.8,0.2-1.6,0.3-2.4,0.5c-0.8,0.1-1.4,0.3-2,0.3c-0.3,0.1-0.6,0-0.6-0.3c0-0.1-0.1-0.2-0.1-0.3
		C102.3,106.7,102.2,106.6,102.2,106.5z M103.5,88.5c0-0.2,0.1-0.3,0.3-0.3h10c0.3,0,0.4,0.1,0.4,0.3v0.4c0,0.2-0.1,0.3-0.3,0.3
		h-10.1c-0.2,0-0.3-0.1-0.3-0.3V88.5z M114.5,92.3c0-0.2,0.1-0.3,0.3-0.3h3.4v-0.6v-5c0-0.2,0-0.3,0.1-0.4c0.1-0.1,0.2-0.2,0.4-0.1
		h0.6c0.2,0,0.3,0.1,0.4,0.2c0.1,0.1,0.1,0.2,0.1,0.4v4.9V92h5.3v-0.6c0-0.2,0-0.4,0.1-0.4c0.1-0.1,0.2-0.1,0.4-0.1h0.6
		c0.3,0,0.5,0.2,0.5,0.6c0,1.8,0,3.6,0,5.3c0,1.7-0.1,3.3-0.1,4.8c-0.1,1.5-0.1,2.8-0.2,4c-0.1,1.2-0.2,2.1-0.2,2.8
		c-0.1,0.8-0.3,1.5-0.7,1.9c-0.3,0.4-0.9,0.8-1.8,0.9c-0.3,0.1-0.6,0.1-0.9,0.1c-0.3,0-0.7,0.1-1.1,0.1c-0.2,0-0.3,0-0.4,0
		c-0.1,0-0.2-0.1-0.3-0.2c0-0.1-0.1-0.2-0.2-0.3c-0.1-0.1-0.2-0.3-0.3-0.5c0-0.1,0-0.2,0-0.3c0-0.1,0.1-0.1,0.3-0.2
		c0.3,0,0.6-0.1,1-0.1c0.4,0,0.7-0.1,1.1-0.1c0.6-0.1,1-0.3,1.2-0.5c0.2-0.3,0.4-0.7,0.5-1.2c0.2-1.3,0.3-3.2,0.4-5.7
		c0.1-2.5,0.2-5.6,0.2-9.2h-5.3c0,1.4-0.1,2.7-0.2,3.8s-0.3,2.3-0.5,3.4c-0.2,1.1-0.5,2.1-0.9,3.1s-0.9,1.9-1.5,2.9
		c-0.6,0.9-1.3,1.9-2.1,2.8c-0.8,0.9-1.8,1.9-2.8,2.9c-0.1,0.1-0.2,0.1-0.3,0.1c-0.1,0-0.2-0.1-0.3-0.2c-0.1-0.1-0.1-0.2-0.2-0.3
		s0-0.2,0.1-0.3c1.4-1.4,2.5-2.8,3.4-4.1c0.9-1.3,1.6-2.7,2.1-4.1c0.5-1.4,0.9-2.9,1.1-4.5c0.2-1.6,0.4-3.4,0.4-5.4h-3.4
		c-0.2,0-0.3-0.1-0.3-0.3V92.3z"/>
	<path class="st0" d="M131,95.5c0-0.1,0-0.2,0.1-0.3c0.1-0.1,0.2-0.2,0.4-0.2h0.2c1-1.5,1.8-2.9,2.6-4.4c0.8-1.5,1.4-2.9,1.9-4.1
		c0.2-0.4,0.4-0.5,0.8-0.4l0.7,0.3c0.2,0.1,0.3,0.2,0.3,0.3c0,0.1,0,0.3,0,0.4c-0.3,0.6-0.6,1.2-1,1.9c-0.4,0.7-0.8,1.4-1.2,2.1
		c-0.5,0.7-0.9,1.4-1.4,2.1c-0.5,0.7-0.9,1.3-1.4,1.8l4.1-0.3c0.2-0.4,0.5-0.9,0.7-1.3c0.2-0.4,0.4-0.9,0.6-1.3
		c0.2-0.3,0.4-0.5,0.8-0.4l0.6,0.3c0.2,0.1,0.3,0.2,0.3,0.3c0,0.2,0,0.3-0.1,0.4c-0.4,0.8-0.8,1.5-1.3,2.3c-0.5,0.8-1,1.6-1.5,2.4
		c-0.5,0.8-1.1,1.5-1.7,2.3c-0.6,0.7-1.1,1.4-1.7,2l5.5-1c0.1,0,0.2,0.1,0.3,0.3c0,0.3,0,0.4-0.1,0.5c-0.3,0.1-0.7,0.2-1.3,0.4
		c-0.6,0.2-1.2,0.4-1.9,0.6c-0.7,0.2-1.3,0.4-2,0.6c-0.7,0.2-1.3,0.4-1.8,0.5c-0.5,0.2-0.9,0-1-0.3c0-0.1,0-0.2-0.1-0.3
		s-0.1-0.2-0.1-0.4c0-0.1,0-0.2,0.1-0.3c0.1-0.1,0.2-0.2,0.4-0.2l0.3-0.1c0.7-0.9,1.4-1.9,2.1-3c0.7-1.1,1.4-2.2,2.1-3.4
		c-0.7,0.2-1.4,0.3-2.2,0.5c-0.8,0.2-1.6,0.3-2.4,0.5c-0.3,0.1-0.5,0.1-0.6,0c-0.1,0-0.2-0.1-0.3-0.3c0-0.1-0.1-0.2-0.1-0.3
		C131,95.7,131,95.6,131,95.5z M131.2,109.1c0-0.2,0-0.3,0-0.5c0.1-0.1,0.2-0.2,0.4-0.3l8.3-2.6c0.1,0,0.1,0,0.2,0.1
		c0.1,0.1,0.1,0.1,0.2,0.2c0,0.1,0.1,0.2,0,0.3c0,0.1-0.1,0.2-0.1,0.2c-0.3,0.2-0.8,0.4-1.4,0.7c-0.6,0.3-1.3,0.6-2,0.9
		c-0.7,0.3-1.5,0.7-2.3,1c-0.8,0.3-1.5,0.6-2.1,0.8c-0.3,0.1-0.5,0.1-0.6,0.1c-0.1,0-0.2-0.2-0.3-0.3c-0.1-0.1-0.1-0.2-0.1-0.3
		C131.2,109.4,131.2,109.3,131.2,109.1z M141.3,87.7c0-0.2,0-0.4,0.1-0.5c0.1-0.1,0.2-0.1,0.4-0.1h0.6c0.1,0,0.3,0,0.4,0.1
		c0.1,0.1,0.2,0.2,0.2,0.5v21.6h13.7c0.3,0,0.4,0.1,0.4,0.3v0.4c0,0.2-0.1,0.3-0.4,0.3h-13.7v0.7c0,0.2,0,0.4-0.1,0.5
		c-0.1,0.1-0.2,0.1-0.4,0.1h-0.6c-0.1,0-0.3,0-0.4-0.1c-0.1-0.1-0.2-0.2-0.2-0.5V87.7z M144,95.8c0-0.2,0.1-0.3,0.3-0.3h4.8v-9
		c0-0.2,0-0.4,0.1-0.5c0.1-0.1,0.2-0.1,0.4-0.1h0.6c0.1,0,0.3,0,0.4,0.1c0.1,0.1,0.2,0.2,0.2,0.5v9h5.5c0.1,0,0.2,0,0.3,0.1
		c0.1,0.1,0.1,0.1,0.1,0.2v0.4c0,0.2-0.1,0.3-0.4,0.3h-5.5v2c1.2,0.8,2.2,1.5,3,2.3c0.8,0.7,1.4,1.3,1.7,1.7
		c0.2,0.2,0.3,0.4,0.3,0.5c0,0.1,0,0.3,0,0.6c-0.1,0.3-0.1,0.5-0.2,0.6c-0.1,0.2-0.2,0.3-0.4,0.3c-0.2,0-0.4,0-0.5-0.3
		c-0.7-1-1.3-1.8-1.9-2.5c-0.6-0.7-1.2-1.4-1.9-2.1v8c0,0.2,0,0.4-0.1,0.5c-0.1,0.1-0.2,0.1-0.4,0.1h-0.6c-0.1,0-0.3,0-0.4-0.1
		c-0.1-0.1-0.2-0.2-0.2-0.5V99c-0.7,1.4-1.6,2.6-2.5,3.8c-0.9,1.2-1.9,2.1-2.8,2.9c-0.1,0-0.1,0-0.2,0c-0.1,0-0.2-0.1-0.2-0.1
		c-0.1-0.1-0.1-0.1-0.1-0.2s0-0.2,0.1-0.2c0.6-0.7,1.2-1.4,1.7-2.1c0.5-0.7,1-1.4,1.4-2.1c0.4-0.7,0.8-1.4,1.2-2.1s0.7-1.5,1-2.3
		h-4.3c-0.2,0-0.3-0.1-0.3-0.3V95.8z M144.1,89c-0.1-0.1,0-0.2,0.1-0.4c0.1-0.1,0.3-0.2,0.4-0.1c0.4,0.4,0.8,0.8,1,1.2
		c0.3,0.3,0.5,0.7,0.7,0.9c0.2,0.3,0.4,0.5,0.5,0.8c0.1,0.2,0.3,0.4,0.3,0.7c0.1,0.3,0.1,0.5,0.1,0.6c0,0.2,0,0.3-0.1,0.5
		c-0.1,0.3-0.2,0.4-0.4,0.6c-0.1,0.1-0.3,0.2-0.5,0.1c-0.2,0-0.3-0.2-0.4-0.4c-0.2-0.7-0.5-1.4-0.7-2.1C145,90.8,144.6,90,144.1,89z
		 M151.8,93.9c0.3-0.4,0.5-0.8,0.7-1.2c0.2-0.4,0.4-0.7,0.5-1c0.2-0.3,0.3-0.7,0.4-1.1c0.1-0.4,0.3-0.8,0.5-1.2
		c0.1-0.2,0.2-0.3,0.3-0.4c0.2-0.1,0.3,0,0.6,0.1l0.6,0.3c0.2,0.1,0.3,0.2,0.3,0.4c0,0.1,0,0.3-0.1,0.4c-0.1,0.2-0.2,0.4-0.4,0.7
		c-0.2,0.3-0.5,0.7-0.8,1.1c-0.3,0.4-0.6,0.9-0.9,1.3c-0.3,0.4-0.7,0.8-1,1.1c-0.1,0.1-0.2,0.1-0.4-0.1
		C151.8,94.2,151.7,94.1,151.8,93.9z"/>
	<path class="st0" d="M160,95.5c0-0.1,0-0.2,0.1-0.3c0.1-0.1,0.2-0.2,0.4-0.2h0.2c1-1.5,1.8-2.9,2.6-4.4c0.8-1.5,1.4-2.9,1.9-4.1
		c0.2-0.4,0.4-0.5,0.8-0.4l0.7,0.3c0.2,0.1,0.3,0.2,0.3,0.3c0,0.1,0,0.3,0,0.4c-0.3,0.6-0.6,1.2-1,1.9c-0.4,0.7-0.8,1.4-1.2,2.1
		c-0.5,0.7-0.9,1.4-1.4,2.1c-0.5,0.7-0.9,1.3-1.4,1.8l4.1-0.3c0.2-0.4,0.5-0.9,0.7-1.3c0.2-0.4,0.4-0.9,0.6-1.3
		c0.2-0.3,0.4-0.5,0.8-0.4l0.6,0.3c0.2,0.1,0.3,0.2,0.3,0.3c0,0.2,0,0.3-0.1,0.4c-0.4,0.8-0.8,1.5-1.3,2.3c-0.5,0.8-1,1.6-1.5,2.4
		c-0.5,0.8-1.1,1.5-1.6,2.3c-0.6,0.7-1.1,1.4-1.7,2l5.8-1c0.1,0,0.1,0,0.2,0.1c0,0.1,0.1,0.2,0.1,0.2c0,0.1,0,0.2,0,0.3
		c0,0.1-0.1,0.1-0.1,0.2c-0.3,0.1-0.7,0.2-1.4,0.4c-0.6,0.2-1.3,0.4-2,0.6c-0.7,0.2-1.4,0.4-2.1,0.6c-0.7,0.2-1.3,0.4-1.8,0.5
		c-0.5,0.2-0.9,0-1-0.3c0-0.1,0-0.2-0.1-0.3c0-0.1-0.1-0.2-0.1-0.4c0-0.1,0-0.2,0.1-0.3c0.1-0.1,0.2-0.2,0.4-0.2l0.4-0.1
		c0.7-0.9,1.4-1.9,2.1-3c0.7-1.1,1.4-2.2,2.1-3.4c-0.7,0.2-1.4,0.3-2.3,0.5c-0.8,0.2-1.6,0.3-2.4,0.5c-0.3,0.1-0.5,0.1-0.6,0
		c-0.1,0-0.2-0.1-0.2-0.3c0-0.1-0.1-0.2-0.1-0.3C160,95.7,160,95.6,160,95.5z M160.2,109.1c0-0.2,0-0.3,0-0.5
		c0.1-0.1,0.2-0.2,0.4-0.3l8.5-2.7c0.1,0,0.1,0,0.2,0.1c0.1,0.1,0.1,0.2,0.2,0.2c0.1,0.2,0.1,0.4-0.1,0.5c-0.3,0.2-0.8,0.5-1.5,0.8
		c-0.6,0.3-1.3,0.6-2.1,1c-0.8,0.3-1.5,0.7-2.3,1c-0.8,0.3-1.5,0.6-2.1,0.8c-0.3,0.1-0.5,0.1-0.6,0.1c-0.1,0-0.2-0.2-0.3-0.3
		c-0.1-0.1-0.1-0.2-0.1-0.3C160.3,109.4,160.2,109.3,160.2,109.1z M168.8,111c1.1-0.5,2.1-1,2.9-1.5c0.9-0.5,1.6-1,2.3-1.6
		c0.6-0.5,1.2-1.1,1.6-1.7c0.4-0.6,0.8-1.2,1.1-1.9h-7.4c-0.2,0-0.3-0.1-0.3-0.3v-0.3c0-0.2,0.1-0.3,0.3-0.3h7.8
		c0.3-0.8,0.4-1.6,0.5-2.5c0.1-0.9,0.2-1.9,0.2-3v-1.5c0-0.3,0.1-0.5,0.5-0.5h0.6c0.3,0,0.5,0.2,0.5,0.6V98c0,2.1-0.2,3.9-0.6,5.4
		h6.6c0.3,0,0.4,0.1,0.4,0.3v0.3c0,0.2-0.1,0.3-0.3,0.3h-7c-0.1,0.3-0.3,0.7-0.4,1c0.7,0.3,1.4,0.6,2.1,1c0.7,0.4,1.4,0.7,2.1,1.1
		c0.7,0.4,1.3,0.7,1.8,1.1c0.5,0.3,0.9,0.6,1.1,0.9c0.2,0.2,0.3,0.3,0.3,0.5c0,0.2,0,0.3,0,0.5c0,0.1,0,0.2-0.1,0.4
		c0,0.1-0.1,0.2-0.1,0.3c-0.1,0.2-0.2,0.3-0.4,0.3s-0.4-0.1-0.6-0.2c-0.9-0.9-1.9-1.8-3.1-2.6c-1.1-0.9-2.4-1.7-3.6-2.5
		c-0.7,1.2-1.8,2.3-3.2,3.2c-1.4,0.9-3.2,1.7-5.4,2.5c-0.1,0-0.1,0-0.2,0c-0.1-0.1-0.1-0.1-0.2-0.2c0-0.1-0.1-0.2-0.1-0.3
		C168.6,111.1,168.7,111,168.8,111z M169.4,93.8c0-0.2,0.1-0.3,0.3-0.3h6.5v-3.6h-5.8c-0.2,0-0.3-0.1-0.3-0.3v-0.3
		c0-0.2,0.1-0.3,0.3-0.3h5.8v-2.4c0-0.2,0-0.4,0.1-0.5c0.1-0.1,0.2-0.1,0.4-0.1h0.6c0.1,0,0.3,0,0.4,0.1c0.1,0.1,0.2,0.2,0.2,0.5
		v2.4h6.4c0.3,0,0.4,0.1,0.4,0.3v0.3c0,0.2-0.1,0.3-0.3,0.3h-6.4v3.6h6c0-0.1,0.1-0.1,0.1-0.3c0.1-0.2,0.2-0.3,0.3-0.4
		c0.1,0,0.3,0,0.4,0.1c0.1,0.1,0.2,0.1,0.4,0.2c0.1,0.1,0.3,0.2,0.4,0.3c0.2,0.1,0.2,0.2,0.2,0.3c0,0.1,0,0.3-0.1,0.4
		c-0.2,0.3-0.4,0.6-0.7,0.9c-0.3,0.3-0.5,0.7-0.8,1s-0.6,0.6-0.9,0.9c-0.3,0.3-0.6,0.6-0.8,0.8c0,0-0.1,0-0.2,0
		c-0.1,0-0.1-0.1-0.2-0.1c-0.1-0.1-0.1-0.1-0.1-0.2c0-0.1,0-0.1,0-0.2c0.3-0.5,0.5-0.9,0.8-1.5c0.3-0.5,0.5-1,0.7-1.4h-13.7
		c-0.2,0-0.3-0.1-0.3-0.3V93.8z M170.4,99.3c-0.1-0.1,0-0.2,0.1-0.3c0.1-0.1,0.2-0.2,0.3-0.2c0.6,0.3,1.1,0.6,1.7,1
		c0.5,0.4,0.9,0.7,1.2,1.1c0.1,0.2,0.2,0.5,0.1,0.8c0,0.1,0,0.2-0.1,0.3c0,0.1-0.1,0.2-0.2,0.3c-0.1,0.1-0.2,0.2-0.4,0.2
		c-0.2,0-0.3-0.1-0.4-0.2c-0.2-0.3-0.4-0.6-0.6-0.9c-0.2-0.2-0.3-0.5-0.5-0.7c-0.2-0.2-0.4-0.5-0.6-0.7
		C170.9,99.8,170.6,99.6,170.4,99.3z M172.1,96.2c-0.1-0.1,0-0.2,0.1-0.3c0.1-0.1,0.2-0.2,0.3-0.2c0.6,0.3,1.2,0.6,1.7,1
		c0.5,0.4,0.9,0.7,1.2,1.1c0.1,0.2,0.2,0.4,0.1,0.8c0,0.1-0.1,0.2-0.1,0.3c0,0.1-0.1,0.2-0.2,0.4c-0.1,0.1-0.2,0.2-0.4,0.2
		c-0.2,0-0.3-0.1-0.4-0.2c-0.2-0.3-0.4-0.6-0.6-0.9c-0.2-0.3-0.3-0.5-0.5-0.7c-0.2-0.2-0.4-0.4-0.6-0.7
		C172.6,96.7,172.4,96.4,172.1,96.2z"/>
</g>
</svg>
